<svg viewBox="0 0 1024 1024" fill="none" xmlns="http://www.w3.org/2000/svg">
  <!-- Background with macOS icon shape -->
  <rect width="1024" height="1024" rx="228" fill="url(#bg)"/>
  
  <!-- Waveform bars -->
  <g opacity="0.95" transform="translate(162, 162) scale(7)">
    <rect x="12" y="55" width="5" height="22" rx="2.5" fill="#6366f1"/>
    <rect x="20" y="42" width="5" height="35" rx="2.5" fill="#818cf8"/>
    <rect x="28" y="30" width="5" height="47" rx="2.5" fill="#a5b4fc"/>
    <rect x="36" y="38" width="5" height="39" rx="2.5" fill="#818cf8"/>
    <rect x="44" y="50" width="5" height="27" rx="2.5" fill="#6366f1"/>
    <rect x="51" y="50" width="5" height="27" rx="2.5" fill="#6366f1"/>
    <rect x="59" y="38" width="5" height="39" rx="2.5" fill="#818cf8"/>
    <rect x="67" y="30" width="5" height="47" rx="2.5" fill="#a5b4fc"/>
    <rect x="75" y="42" width="5" height="35" rx="2.5" fill="#818cf8"/>
    <rect x="83" y="55" width="5" height="22" rx="2.5" fill="#6366f1"/>
  </g>
  
  <defs>
    <linearGradient id="bg" x1="0" y1="0" x2="1024" y2="1024" gradientUnits="userSpaceOnUse">
      <stop offset="0%" stop-color="#1a1a2e"/>
      <stop offset="100%" stop-color="#0f0f1a"/>
    </linearGradient>
  </defs>
</svg>
